<svg id="visual" viewBox="0 0 900 600" width="900" height="600" xmlns="http://www.w3.org/2000/svg" xmlns:xlink="http://www.w3.org/1999/xlink" version="1.1"><rect width="900" height="600" fill="#001829"></rect><g><g transform="translate(546 432)"><path d="M0 -45.8L39.6 -22.9L39.6 22.9L0 45.8L-39.6 22.9L-39.6 -22.9Z" fill="none" stroke="#FFA500" stroke-width="2"></path></g><g transform="translate(620 260)"><path d="M0 -28L24.2 -14L24.2 14L0 28L-24.2 14L-24.2 -14Z" fill="none" stroke="#FFA500" stroke-width="2"></path></g><g transform="translate(418 550)"><path d="M0 -34L29.4 -17L29.4 17L0 34L-29.4 17L-29.4 -17Z" fill="none" stroke="#FFA500" stroke-width="2"></path></g><g transform="translate(843 127)"><path d="M0 -25L21.7 -12.5L21.7 12.5L0 25L-21.7 12.5L-21.7 -12.5Z" fill="none" stroke="#FFA500" stroke-width="2"></path></g><g transform="translate(125 567)"><path d="M0 -38L32.9 -19L32.9 19L0 38L-32.9 19L-32.9 -19Z" fill="none" stroke="#FFA500" stroke-width="2"></path></g><g transform="translate(258 190)"><path d="M0 -35L30.3 -17.5L30.3 17.5L0 35L-30.3 17.5L-30.3 -17.5Z" fill="none" stroke="#FFA500" stroke-width="2"></path></g><g transform="translate(408 273)"><path d="M0 -28L24.2 -14L24.2 14L0 28L-24.2 14L-24.2 -14Z" fill="none" stroke="#FFA500" stroke-width="2"></path></g><g transform="translate(236 18)"><path d="M0 -27L23.4 -13.5L23.4 13.5L0 27L-23.4 13.5L-23.4 -13.5Z" fill="none" stroke="#FFA500" stroke-width="2"></path></g><g transform="translate(820 410)"><path d="M0 -25L21.7 -12.5L21.7 12.5L0 25L-21.7 12.5L-21.7 -12.5Z" fill="none" stroke="#FFA500" stroke-width="2"></path></g><g transform="translate(725 130)"><path d="M0 -42L36.4 -21L36.4 21L0 42L-36.4 21L-36.4 -21Z" fill="none" stroke="#FFA500" stroke-width="2"></path></g><g transform="translate(31 9)"><path d="M0 -39L33.8 -19.5L33.8 19.5L0 39L-33.8 19.5L-33.8 -19.5Z" fill="none" stroke="#FFA500" stroke-width="2"></path></g><g transform="translate(515 539)"><path d="M0 -38L32.9 -19L32.9 19L0 38L-32.9 19L-32.9 -19Z" fill="none" stroke="#FFA500" stroke-width="2"></path></g><g transform="translate(263 572)"><path d="M0 -27L23.4 -13.5L23.4 13.5L0 27L-23.4 13.5L-23.4 -13.5Z" fill="none" stroke="#FFA500" stroke-width="2"></path></g><g transform="translate(659 507)"><path d="M0 -27L23.4 -13.5L23.4 13.5L0 27L-23.4 13.5L-23.4 -13.5Z" fill="none" stroke="#FFA500" stroke-width="2"></path></g><g transform="translate(491 25)"><path d="M0 -25L21.7 -12.5L21.7 12.5L0 25L-21.7 12.5L-21.7 -12.5Z" fill="none" stroke="#FFA500" stroke-width="2"></path></g><g transform="translate(134 265)"><path d="M0 -34L29.4 -17L29.4 17L0 34L-29.4 17L-29.4 -17Z" fill="none" stroke="#FFA500" stroke-width="2"></path></g><g transform="translate(340 359)"><path d="M0 -35L30.3 -17.5L30.3 17.5L0 35L-30.3 17.5L-30.3 -17.5Z" fill="none" stroke="#FFA500" stroke-width="2"></path></g><g transform="translate(691 347)"><path d="M0 -22L19.1 -11L19.1 11L0 22L-19.1 11L-19.1 -11Z" fill="none" stroke="#FFA500" stroke-width="2"></path></g><g transform="translate(332 5)"><path d="M0 -30L26 -15L26 15L0 30L-26 15L-26 -15Z" fill="none" stroke="#FFA500" stroke-width="2"></path></g><g transform="translate(17 471)"><path d="M0 -35L30.3 -17.5L30.3 17.5L0 35L-30.3 17.5L-30.3 -17.5Z" fill="none" stroke="#FFA500" stroke-width="2"></path></g><g transform="translate(79 192)"><path d="M0 -32L27.7 -16L27.7 16L0 32L-27.7 16L-27.7 -16Z" fill="none" stroke="#FFA500" stroke-width="2"></path></g><g transform="translate(193 379)"><path d="M0 -37L32 -18.5L32 18.5L0 37L-32 18.5L-32 -18.5Z" fill="none" stroke="#FFA500" stroke-width="2"></path></g><g transform="translate(145 76)"><path d="M0 -26L22.5 -13L22.5 13L0 26L-22.5 13L-22.5 -13Z" fill="none" stroke="#FFA500" stroke-width="2"></path></g><g transform="translate(3 591)"><path d="M0 -28L24.2 -14L24.2 14L0 28L-24.2 14L-24.2 -14Z" fill="none" stroke="#FFA500" stroke-width="2"></path></g><g transform="translate(667 49)"><path d="M0 -24L20.8 -12L20.8 12L0 24L-20.8 12L-20.8 -12Z" fill="none" stroke="#FFA500" stroke-width="2"></path></g><g transform="translate(878 580)"><path d="M0 -22L19.1 -11L19.1 11L0 22L-19.1 11L-19.1 -11Z" fill="none" stroke="#FFA500" stroke-width="2"></path></g><g transform="translate(571 171)"><path d="M0 -38L32.9 -19L32.9 19L0 38L-32.9 19L-32.9 -19Z" fill="none" stroke="#FFA500" stroke-width="2"></path></g><g transform="translate(769 18)"><path d="M0 -41L35.5 -20.5L35.5 20.5L0 41L-35.5 20.5L-35.5 -20.5Z" fill="none" stroke="#FFA500" stroke-width="2"></path></g><g transform="translate(775 226)"><path d="M0 -29L25.1 -14.5L25.1 14.5L0 29L-25.1 14.5L-25.1 -14.5Z" fill="none" stroke="#FFA500" stroke-width="2"></path></g><g transform="translate(336 472)"><path d="M0 -37L32 -18.5L32 18.5L0 37L-32 18.5L-32 -18.5Z" fill="none" stroke="#FFA500" stroke-width="2"></path></g><g transform="translate(420 111)"><path d="M0 -22L19.1 -11L19.1 11L0 22L-19.1 11L-19.1 -11Z" fill="none" stroke="#FFA500" stroke-width="2"></path></g><g transform="translate(21 304)"><path d="M0 -27L23.4 -13.5L23.4 13.5L0 27L-23.4 13.5L-23.4 -13.5Z" fill="none" stroke="#FFA500" stroke-width="2"></path></g><g transform="translate(870 17)"><path d="M0 -42L36.4 -21L36.4 21L0 42L-36.4 21L-36.4 -21Z" fill="none" stroke="#FFA500" stroke-width="2"></path></g><g transform="translate(597 590)"><path d="M0 -35L30.3 -17.5L30.3 17.5L0 35L-30.3 17.5L-30.3 -17.5Z" fill="none" stroke="#FFA500" stroke-width="2"></path></g><g transform="translate(751 559)"><path d="M0 -39L33.8 -19.5L33.8 19.5L0 39L-33.8 19.5L-33.8 -19.5Z" fill="none" stroke="#FFA500" stroke-width="2"></path></g><g transform="translate(898 347)"><path d="M0 -27L23.4 -13.5L23.4 13.5L0 27L-23.4 13.5L-23.4 -13.5Z" fill="none" stroke="#FFA500" stroke-width="2"></path></g><g transform="translate(34 103)"><path d="M0 -25L21.7 -12.5L21.7 12.5L0 25L-21.7 12.5L-21.7 -12.5Z" fill="none" stroke="#FFA500" stroke-width="2"></path></g><g transform="translate(484 334)"><path d="M0 -30L26 -15L26 15L0 30L-26 15L-26 -15Z" fill="none" stroke="#FFA500" stroke-width="2"></path></g><g transform="translate(898 211)"><path d="M0 -32L27.7 -16L27.7 16L0 32L-27.7 16L-27.7 -16Z" fill="none" stroke="#FFA500" stroke-width="2"></path></g><g transform="translate(284 286)"><path d="M0 -25L21.7 -12.5L21.7 12.5L0 25L-21.7 12.5L-21.7 -12.5Z" fill="none" stroke="#FFA500" stroke-width="2"></path></g><g transform="translate(237 480)"><path d="M0 -24L20.8 -12L20.8 12L0 24L-20.8 12L-20.8 -12Z" fill="none" stroke="#FFA500" stroke-width="2"></path></g><g transform="translate(96 373)"><path d="M0 -36L31.2 -18L31.2 18L0 36L-31.2 18L-31.2 -18Z" fill="none" stroke="#FFA500" stroke-width="2"></path></g><g transform="translate(474 205)"><path d="M0 -37L32 -18.5L32 18.5L0 37L-32 18.5L-32 -18.5Z" fill="none" stroke="#FFA500" stroke-width="2"></path></g><g transform="translate(782 327)"><path d="M0 -44L38.1 -22L38.1 22L0 44L-38.1 22L-38.1 -22Z" fill="none" stroke="#FFA500" stroke-width="2"></path></g><g transform="translate(296 106)"><path d="M0 -37L32 -18.5L32 18.5L0 37L-32 18.5L-32 -18.5Z" fill="none" stroke="#FFA500" stroke-width="2"></path></g><g transform="translate(439 447)"><path d="M0 -33L28.6 -16.5L28.6 16.5L0 33L-28.6 16.5L-28.6 -16.5Z" fill="none" stroke="#FFA500" stroke-width="2"></path></g><g transform="translate(120 469)"><path d="M0 -39L33.8 -19.5L33.8 19.5L0 39L-33.8 19.5L-33.8 -19.5Z" fill="none" stroke="#FFA500" stroke-width="2"></path></g><g transform="translate(746 465)"><path d="M0 -43L37.2 -21.5L37.2 21.5L0 43L-37.2 21.5L-37.2 -21.5Z" fill="none" stroke="#FFA500" stroke-width="2"></path></g><g transform="translate(894 480)"><path d="M0 -28L24.2 -14L24.2 14L0 28L-24.2 14L-24.2 -14Z" fill="none" stroke="#FFA500" stroke-width="2"></path></g><g transform="translate(595 350)"><path d="M0 -44L38.1 -22L38.1 22L0 44L-38.1 22L-38.1 -22Z" fill="none" stroke="#FFA500" stroke-width="2"></path></g><g transform="translate(351 186)"><path d="M0 -34L29.4 -17L29.4 17L0 34L-29.4 17L-29.4 -17Z" fill="none" stroke="#FFA500" stroke-width="2"></path></g></g></svg>