<svg id="visual" viewBox="0 0 900 600" width="900" height="600" xmlns="http://www.w3.org/2000/svg" xmlns:xlink="http://www.w3.org/1999/xlink" version="1.1"><path d="M827 600L737 545L773 491L836 436L755 382L800 327L773 273L737 218L737 164L836 109L800 55L746 0L900 0L900 55L900 109L900 164L900 218L900 273L900 327L900 382L900 436L900 491L900 545L900 600Z" fill="#ffffff"></path><path d="M773 600L638 545L647 491L773 436L692 382L737 327L674 273L683 218L656 164L728 109L746 55L674 0L747 0L801 55L837 109L738 164L738 218L774 273L801 327L756 382L837 436L774 491L738 545L828 600Z" fill="#ffecd3"></path><path d="M674 600L539 545L566 491L584 436L575 382L530 327L584 273L539 218L521 164L530 109L566 55L602 0L675 0L747 55L729 109L657 164L684 218L675 273L738 327L693 382L774 436L648 491L639 545L774 600Z" fill="#ffdaa7"></path><path d="M386 600L296 545L395 491L386 436L260 382L314 327L332 273L368 218L206 164L269 109L431 55L323 0L603 0L567 55L531 109L522 164L540 218L585 273L531 327L576 382L585 436L567 491L540 545L675 600Z" fill="#ffc97b"></path><path d="M80 600L116 545L71 491L107 436L98 382L116 327L107 273L98 218L53 164L62 109L107 55L116 0L324 0L432 55L270 109L207 164L369 218L333 273L315 327L261 382L387 436L396 491L297 545L387 600Z" fill="#ffb74c"></path><path d="M0 600L0 545L0 491L0 436L0 382L0 327L0 273L0 218L0 164L0 109L0 55L0 0L117 0L108 55L63 109L54 164L99 218L108 273L117 327L99 382L108 436L72 491L117 545L81 600Z" fill="#ffa500"></path></svg>