<svg id="visual" viewBox="0 0 900 600" width="900" height="600" xmlns="http://www.w3.org/2000/svg" xmlns:xlink="http://www.w3.org/1999/xlink" version="1.1"><rect x="0" y="0" width="900" height="600" fill="#000000"></rect><path d="M0 253L129 181L257 143L386 250L514 104L643 150L771 123L900 238L900 601L771 601L643 601L514 601L386 601L257 601L129 601L0 601Z" fill="#001829"></path><path d="M0 143L129 190L257 235L386 206L514 137L643 170L771 159L900 221L900 601L771 601L643 601L514 601L386 601L257 601L129 601L0 601Z" fill="#032236"></path><path d="M0 221L129 288L257 233L386 201L514 268L643 193L771 296L900 277L900 601L771 601L643 601L514 601L386 601L257 601L129 601L0 601Z" fill="#072c43"></path><path d="M0 336L129 299L257 274L386 359L514 336L643 259L771 275L900 283L900 601L771 601L643 601L514 601L386 601L257 601L129 601L0 601Z" fill="#0c3650"></path><path d="M0 361L129 308L257 306L386 292L514 397L643 300L771 387L900 280L900 601L771 601L643 601L514 601L386 601L257 601L129 601L0 601Z" fill="#11415e"></path><path d="M0 398L129 338L257 401L386 425L514 375L643 430L771 394L900 340L900 601L771 601L643 601L514 601L386 601L257 601L129 601L0 601Z" fill="#174d6c"></path><path d="M0 406L129 378L257 457L386 436L514 414L643 437L771 462L900 421L900 601L771 601L643 601L514 601L386 601L257 601L129 601L0 601Z" fill="#1b597a"></path><path d="M0 433L129 491L257 457L386 467L514 443L643 432L771 424L900 496L900 601L771 601L643 601L514 601L386 601L257 601L129 601L0 601Z" fill="#206589"></path><path d="M0 531L129 484L257 485L386 484L514 506L643 516L771 515L900 502L900 601L771 601L643 601L514 601L386 601L257 601L129 601L0 601Z" fill="#257197"></path><path d="M0 566L129 559L257 529L386 554L514 557L643 539L771 569L900 526L900 601L771 601L643 601L514 601L386 601L257 601L129 601L0 601Z" fill="#297ea6"></path></svg>