<svg id="visual" viewBox="0 0 900 600" width="900" height="600" xmlns="http://www.w3.org/2000/svg" xmlns:xlink="http://www.w3.org/1999/xlink" version="1.1"><g stroke-width="1" stroke-linejoin="bevel"><path d="M451.1 306L458.9 366L499.9 259Z" fill="#3b195e" stroke="#3b195e"></path><path d="M606.7 344L569.7 259L499.9 259Z" fill="#001a31" stroke="#001a31"></path><path d="M458.9 366L606.7 344L499.9 259Z" fill="#491360" stroke="#491360"></path><path d="M609.7 433L617.5 348L606.7 344Z" fill="#491360" stroke="#491360"></path><path d="M606.7 344L636.5 332L569.7 259Z" fill="#491360" stroke="#491360"></path><path d="M617.5 348L636.5 332L606.7 344Z" fill="#001e42" stroke="#001e42"></path><path d="M458.9 366L609.7 433L606.7 344Z" fill="#001c3a" stroke="#001c3a"></path><path d="M665.5 224L545.7 202L569.7 259Z" fill="#001c3a" stroke="#001c3a"></path><path d="M569.7 259L545.7 202L499.9 259Z" fill="#111f50" stroke="#111f50"></path><path d="M499.9 259L453.9 193L451.1 306Z" fill="#001e42" stroke="#001e42"></path><path d="M469.9 441L609.7 433L458.9 366Z" fill="#3b195e" stroke="#3b195e"></path><path d="M617.5 348L640.5 445L636.5 332Z" fill="#001c3a" stroke="#001c3a"></path><path d="M545.7 202L529.9 182L499.9 259Z" fill="#3b195e" stroke="#3b195e"></path><path d="M529.9 182L453.9 193L499.9 259Z" fill="#3b195e" stroke="#3b195e"></path><path d="M612.5 116L539.7 174L545.7 202Z" fill="#1f1e56" stroke="#1f1e56"></path><path d="M545.7 202L539.7 174L529.9 182Z" fill="#3b195e" stroke="#3b195e"></path><path d="M455.9 114L441.1 177L453.9 193Z" fill="#001a31" stroke="#001a31"></path><path d="M595.7 542L640.5 445L609.7 433Z" fill="#570861" stroke="#570861"></path><path d="M609.7 433L640.5 445L617.5 348Z" fill="#001a31" stroke="#001a31"></path><path d="M455.9 114L453.9 193L529.9 182Z" fill="#2d1d5b" stroke="#2d1d5b"></path><path d="M453.9 193L374.1 215L451.1 306Z" fill="#001e42" stroke="#001e42"></path><path d="M315.3 291L365.1 411L451.1 306Z" fill="#031f49" stroke="#031f49"></path><path d="M451.1 306L365.1 411L458.9 366Z" fill="#001e42" stroke="#001e42"></path><path d="M458.9 366L365.1 411L469.9 441Z" fill="#2d1d5b" stroke="#2d1d5b"></path><path d="M741.4 310L665.5 224L636.5 332Z" fill="#1f1e56" stroke="#1f1e56"></path><path d="M636.5 332L665.5 224L569.7 259Z" fill="#031f49" stroke="#031f49"></path><path d="M441.1 177L374.1 215L453.9 193Z" fill="#111f50" stroke="#111f50"></path><path d="M374.1 215L315.3 291L451.1 306Z" fill="#001a31" stroke="#001a31"></path><path d="M365.1 411L376.1 479L469.9 441Z" fill="#111f50" stroke="#111f50"></path><path d="M469.9 441L595.7 542L609.7 433Z" fill="#1f1e56" stroke="#1f1e56"></path><path d="M322.3 472L376.1 479L365.1 411Z" fill="#570861" stroke="#570861"></path><path d="M376.1 479L426.1 525L469.9 441Z" fill="#2d1d5b" stroke="#2d1d5b"></path><path d="M607.7 73L455.9 114L539.7 174Z" fill="#2d1d5b" stroke="#2d1d5b"></path><path d="M539.7 174L455.9 114L529.9 182Z" fill="#2d1d5b" stroke="#2d1d5b"></path><path d="M441.1 177L370.3 128L374.1 215Z" fill="#2d1d5b" stroke="#2d1d5b"></path><path d="M762.4 370L741.4 310L636.5 332Z" fill="#001e42" stroke="#001e42"></path><path d="M487.9 564L595.7 542L469.9 441Z" fill="#491360" stroke="#491360"></path><path d="M640.5 445L737.4 421L636.5 332Z" fill="#491360" stroke="#491360"></path><path d="M315.3 291L296.3 379L365.1 411Z" fill="#3b195e" stroke="#3b195e"></path><path d="M717.4 157L612.5 116L665.5 224Z" fill="#3b195e" stroke="#3b195e"></path><path d="M665.5 224L612.5 116L545.7 202Z" fill="#001c3a" stroke="#001c3a"></path><path d="M772.4 529L737.4 421L640.5 445Z" fill="#111f50" stroke="#111f50"></path><path d="M426.1 525L487.9 564L469.9 441Z" fill="#3b195e" stroke="#3b195e"></path><path d="M538.7 0L448.1 96L455.9 114Z" fill="#111f50" stroke="#111f50"></path><path d="M455.9 114L370.3 128L441.1 177Z" fill="#001e42" stroke="#001e42"></path><path d="M374.1 215L299.3 211L315.3 291Z" fill="#2d1d5b" stroke="#2d1d5b"></path><path d="M376.1 479L320.3 502L426.1 525Z" fill="#570861" stroke="#570861"></path><path d="M426.1 525L467.9 600L487.9 564Z" fill="#570861" stroke="#570861"></path><path d="M296.3 379L322.3 472L365.1 411Z" fill="#2d1d5b" stroke="#2d1d5b"></path><path d="M737.4 421L762.4 370L636.5 332Z" fill="#2d1d5b" stroke="#2d1d5b"></path><path d="M557.7 600L631.5 548L595.7 542Z" fill="#001e42" stroke="#001e42"></path><path d="M595.7 542L631.5 548L640.5 445Z" fill="#031f49" stroke="#031f49"></path><path d="M370.3 128L299.3 211L374.1 215Z" fill="#3b195e" stroke="#3b195e"></path><path d="M315.3 291L264.5 265L296.3 379Z" fill="#2d1d5b" stroke="#2d1d5b"></path><path d="M448.1 96L370.3 128L455.9 114Z" fill="#001a31" stroke="#001a31"></path><path d="M823.2 273L763.4 257L741.4 310Z" fill="#3b195e" stroke="#3b195e"></path><path d="M741.4 310L763.4 257L665.5 224Z" fill="#1f1e56" stroke="#1f1e56"></path><path d="M763.4 257L717.4 157L665.5 224Z" fill="#111f50" stroke="#111f50"></path><path d="M299.3 211L264.5 265L315.3 291Z" fill="#111f50" stroke="#111f50"></path><path d="M230.5 427L320.3 502L322.3 472Z" fill="#491360" stroke="#491360"></path><path d="M322.3 472L320.3 502L376.1 479Z" fill="#1f1e56" stroke="#1f1e56"></path><path d="M230.5 427L322.3 472L296.3 379Z" fill="#031f49" stroke="#031f49"></path><path d="M822.2 433L776.2 393L737.4 421Z" fill="#001e42" stroke="#001e42"></path><path d="M737.4 421L776.2 393L762.4 370Z" fill="#001c3a" stroke="#001c3a"></path><path d="M823.2 273L803.2 219L763.4 257Z" fill="#001a31" stroke="#001a31"></path><path d="M621.5 59L607.7 73L612.5 116Z" fill="#570861" stroke="#570861"></path><path d="M612.5 116L607.7 73L539.7 174Z" fill="#001829" stroke="#001829"></path><path d="M487.9 564L557.7 600L595.7 542Z" fill="#031f49" stroke="#031f49"></path><path d="M467.9 600L557.7 600L487.9 564Z" fill="#001c3a" stroke="#001c3a"></path><path d="M414.1 600L467.9 600L426.1 525Z" fill="#001829" stroke="#001829"></path><path d="M299.3 211L270.5 196L264.5 265Z" fill="#570861" stroke="#570861"></path><path d="M370.3 128L270.5 196L299.3 211Z" fill="#491360" stroke="#491360"></path><path d="M717.4 157L621.5 59L612.5 116Z" fill="#001829" stroke="#001829"></path><path d="M607.7 73L538.7 0L455.9 114Z" fill="#001829" stroke="#001829"></path><path d="M320.3 502L414.1 600L426.1 525Z" fill="#3b195e" stroke="#3b195e"></path><path d="M763.4 257L803.2 219L717.4 157Z" fill="#111f50" stroke="#111f50"></path><path d="M752.4 36L655.5 0L621.5 59Z" fill="#111f50" stroke="#111f50"></path><path d="M823.2 273L741.4 310L762.4 370Z" fill="#111f50" stroke="#111f50"></path><path d="M186.6 247L217.5 369L264.5 265Z" fill="#3b195e" stroke="#3b195e"></path><path d="M264.5 265L217.5 369L296.3 379Z" fill="#111f50" stroke="#111f50"></path><path d="M217.5 369L230.5 427L296.3 379Z" fill="#031f49" stroke="#031f49"></path><path d="M320.3 502L311.3 600L414.1 600Z" fill="#2d1d5b" stroke="#2d1d5b"></path><path d="M900 338L823.2 273L762.4 370Z" fill="#001e42" stroke="#001e42"></path><path d="M557.7 600L682.5 600L631.5 548Z" fill="#1f1e56" stroke="#1f1e56"></path><path d="M631.5 548L772.4 529L640.5 445Z" fill="#3b195e" stroke="#3b195e"></path><path d="M803.2 497L822.2 433L737.4 421Z" fill="#1f1e56" stroke="#1f1e56"></path><path d="M776.2 393L900 338L762.4 370Z" fill="#2d1d5b" stroke="#2d1d5b"></path><path d="M682.5 600L772.4 529L631.5 548Z" fill="#111f50" stroke="#111f50"></path><path d="M621.5 59L538.7 0L607.7 73Z" fill="#001e42" stroke="#001e42"></path><path d="M383.1 0L289.3 79L370.3 128Z" fill="#001a31" stroke="#001a31"></path><path d="M370.3 128L279.5 97L270.5 196Z" fill="#001a31" stroke="#001a31"></path><path d="M538.7 0L476.9 0L448.1 96Z" fill="#1f1e56" stroke="#1f1e56"></path><path d="M772.4 529L803.2 497L737.4 421Z" fill="#491360" stroke="#491360"></path><path d="M289.3 79L279.5 97L370.3 128Z" fill="#570861" stroke="#570861"></path><path d="M270.5 196L186.6 247L264.5 265Z" fill="#570861" stroke="#570861"></path><path d="M383.1 0L370.3 128L448.1 96Z" fill="#001e42" stroke="#001e42"></path><path d="M230.5 118L270.5 196L279.5 97Z" fill="#2d1d5b" stroke="#2d1d5b"></path><path d="M230.5 118L186.6 247L270.5 196Z" fill="#001c3a" stroke="#001c3a"></path><path d="M217.5 369L144.6 422L230.5 427Z" fill="#031f49" stroke="#031f49"></path><path d="M259.5 567L311.3 600L320.3 502Z" fill="#001a31" stroke="#001a31"></path><path d="M682.5 600L738.4 600L772.4 529Z" fill="#031f49" stroke="#031f49"></path><path d="M900 528L900 458L803.2 497Z" fill="#001c3a" stroke="#001c3a"></path><path d="M230.5 427L259.5 567L320.3 502Z" fill="#001e42" stroke="#001e42"></path><path d="M133.6 527L259.5 567L230.5 427Z" fill="#031f49" stroke="#031f49"></path><path d="M476.9 0L383.1 0L448.1 96Z" fill="#031f49" stroke="#031f49"></path><path d="M752.4 36L621.5 59L717.4 157Z" fill="#111f50" stroke="#111f50"></path><path d="M621.5 59L655.5 0L538.7 0Z" fill="#491360" stroke="#491360"></path><path d="M176.6 55L230.5 118L289.3 79Z" fill="#001e42" stroke="#001e42"></path><path d="M289.3 79L230.5 118L279.5 97Z" fill="#001c3a" stroke="#001c3a"></path><path d="M900 199L821.2 124L803.2 219Z" fill="#2d1d5b" stroke="#2d1d5b"></path><path d="M803.2 219L821.2 124L717.4 157Z" fill="#001a31" stroke="#001a31"></path><path d="M821.2 124L752.4 36L717.4 157Z" fill="#3b195e" stroke="#3b195e"></path><path d="M822.2 433L900 338L776.2 393Z" fill="#3b195e" stroke="#3b195e"></path><path d="M823.2 273L900 199L803.2 219Z" fill="#570861" stroke="#570861"></path><path d="M900 458L900 338L822.2 433Z" fill="#491360" stroke="#491360"></path><path d="M900 338L900 303L823.2 273Z" fill="#001e42" stroke="#001e42"></path><path d="M112.8 261L139.6 276L186.6 247Z" fill="#2d1d5b" stroke="#2d1d5b"></path><path d="M186.6 247L139.6 276L217.5 369Z" fill="#570861" stroke="#570861"></path><path d="M132.6 396L144.6 422L217.5 369Z" fill="#001a31" stroke="#001a31"></path><path d="M102.8 317L132.6 396L217.5 369Z" fill="#031f49" stroke="#031f49"></path><path d="M787.2 0L739.4 0L752.4 36Z" fill="#001a31" stroke="#001a31"></path><path d="M752.4 36L739.4 0L655.5 0Z" fill="#001c3a" stroke="#001c3a"></path><path d="M383.1 0L289.3 0L289.3 79Z" fill="#001829" stroke="#001829"></path><path d="M230.5 118L172.6 117L186.6 247Z" fill="#001c3a" stroke="#001c3a"></path><path d="M900 303L900 199L823.2 273Z" fill="#570861" stroke="#570861"></path><path d="M845.2 40L787.2 0L752.4 36Z" fill="#2d1d5b" stroke="#2d1d5b"></path><path d="M845.2 600L803.2 497L772.4 529Z" fill="#570861" stroke="#570861"></path><path d="M803.2 497L900 458L822.2 433Z" fill="#491360" stroke="#491360"></path><path d="M202.6 600L220.5 600L259.5 567Z" fill="#111f50" stroke="#111f50"></path><path d="M259.5 567L220.5 600L311.3 600Z" fill="#001829" stroke="#001829"></path><path d="M124.8 446L230.5 427L144.6 422Z" fill="#2d1d5b" stroke="#2d1d5b"></path><path d="M176.6 55L172.6 117L230.5 118Z" fill="#3b195e" stroke="#3b195e"></path><path d="M64.8 388L124.8 446L132.6 396Z" fill="#1f1e56" stroke="#1f1e56"></path><path d="M132.6 396L124.8 446L144.6 422Z" fill="#570861" stroke="#570861"></path><path d="M123.8 114L112.8 261L186.6 247Z" fill="#491360" stroke="#491360"></path><path d="M139.6 276L102.8 317L217.5 369Z" fill="#491360" stroke="#491360"></path><path d="M112.8 261L102.8 317L139.6 276Z" fill="#001829" stroke="#001829"></path><path d="M133.6 527L202.6 600L259.5 567Z" fill="#001e42" stroke="#001e42"></path><path d="M900 199L900 153L821.2 124Z" fill="#001e42" stroke="#001e42"></path><path d="M845.2 40L752.4 36L821.2 124Z" fill="#111f50" stroke="#111f50"></path><path d="M738.4 600L845.2 600L772.4 529Z" fill="#031f49" stroke="#031f49"></path><path d="M845.2 600L900 528L803.2 497Z" fill="#2d1d5b" stroke="#2d1d5b"></path><path d="M119.8 514L133.6 527L124.8 446Z" fill="#2d1d5b" stroke="#2d1d5b"></path><path d="M124.8 446L133.6 527L230.5 427Z" fill="#2d1d5b" stroke="#2d1d5b"></path><path d="M900 82L845.2 40L821.2 124Z" fill="#570861" stroke="#570861"></path><path d="M202.5 0L176.6 55L289.3 79Z" fill="#3b195e" stroke="#3b195e"></path><path d="M172.6 117L123.8 114L186.6 247Z" fill="#001c3a" stroke="#001c3a"></path><path d="M0 460L119.8 514L124.8 446Z" fill="#111f50" stroke="#111f50"></path><path d="M133.6 527L122.8 600L202.6 600Z" fill="#001c3a" stroke="#001c3a"></path><path d="M0 317L64.8 388L102.8 317Z" fill="#001a31" stroke="#001a31"></path><path d="M176.6 55L123.8 114L172.6 117Z" fill="#001e42" stroke="#001e42"></path><path d="M900 153L900 82L821.2 124Z" fill="#001e42" stroke="#001e42"></path><path d="M289.3 0L202.5 0L289.3 79Z" fill="#031f49" stroke="#031f49"></path><path d="M176.6 55L80.8 54L123.8 114Z" fill="#001829" stroke="#001829"></path><path d="M102.8 317L64.8 388L132.6 396Z" fill="#031f49" stroke="#031f49"></path><path d="M0 317L102.8 317L0 264Z" fill="#3b195e" stroke="#3b195e"></path><path d="M845.2 600L900 600L900 528Z" fill="#001e42" stroke="#001e42"></path><path d="M202.5 0L174.6 0L176.6 55Z" fill="#001c3a" stroke="#001c3a"></path><path d="M119.8 514L122.8 600L133.6 527Z" fill="#031f49" stroke="#031f49"></path><path d="M0 565L122.8 600L119.8 514Z" fill="#1f1e56" stroke="#1f1e56"></path><path d="M900 82L900 0L845.2 40Z" fill="#001829" stroke="#001829"></path><path d="M845.2 40L900 0L787.2 0Z" fill="#001e42" stroke="#001e42"></path><path d="M174.6 0L80.8 54L176.6 55Z" fill="#001829" stroke="#001829"></path><path d="M0 264L102.8 317L112.8 261Z" fill="#031f49" stroke="#031f49"></path><path d="M0 264L112.8 261L0 159Z" fill="#031f49" stroke="#031f49"></path><path d="M64.8 388L0 460L124.8 446Z" fill="#001829" stroke="#001829"></path><path d="M0 317L0 366L64.8 388Z" fill="#2d1d5b" stroke="#2d1d5b"></path><path d="M0 159L112.8 261L123.8 114Z" fill="#491360" stroke="#491360"></path><path d="M0 366L0 460L64.8 388Z" fill="#031f49" stroke="#031f49"></path><path d="M0 85L0 159L123.8 114Z" fill="#3b195e" stroke="#3b195e"></path><path d="M0 460L0 565L119.8 514Z" fill="#491360" stroke="#491360"></path><path d="M80.8 54L0 85L123.8 114Z" fill="#001a31" stroke="#001a31"></path><path d="M44.8 0L0 85L80.8 54Z" fill="#111f50" stroke="#111f50"></path><path d="M174.6 0L44.8 0L80.8 54Z" fill="#001a31" stroke="#001a31"></path><path d="M0 565L0 600L122.8 600Z" fill="#001e42" stroke="#001e42"></path><path d="M44.8 0L0 0L0 85Z" fill="#1f1e56" stroke="#1f1e56"></path></g></svg>